<?xml version="1.0" standalone="no"?>
<!DOCTYPE svg PUBLIC "-//W3C//DTD SVG 20010904//EN"
 "http://www.w3.org/TR/2001/REC-SVG-20010904/DTD/svg10.dtd">
<svg version="1.0" xmlns="http://www.w3.org/2000/svg"
 width="512.000000pt" height="512.000000pt" viewBox="0 0 512.000000 512.000000"
 preserveAspectRatio="xMidYMid meet">
<metadata>
Created by potrace 1.11, written by Peter Selinger 2001-2013
</metadata>
<g transform="translate(0.000000,512.000000) scale(0.100000,-0.100000)"
fill="#000000" stroke="none">
<path d="M2330 5110 c-890 -86 -1670 -621 -2060 -1415 -161 -327 -236 -606
-262 -973 -24 -335 30 -722 147 -1038 46 -125 168 -376 231 -474 342 -538 867
-936 1456 -1105 610 -176 1252 -125 1817 146 259 124 473 273 680 474 462 448
727 1022 773 1672 19 267 -6 528 -77 809 -45 177 -91 298 -185 489 -133 268
-290 484 -509 698 -387 377 -871 617 -1406 698 -151 23 -462 32 -605 19z
m-1226 -3061 l43 -11 -16 -59 c-14 -53 -18 -59 -36 -54 -42 14 -123 17 -143 6
-23 -12 -42 -66 -42 -119 l0 -34 98 4 97 3 3 -67 3 -68 -102 0 -101 0 3 -280
4 -280 -80 0 -80 0 3 280 4 280 -81 0 -81 0 0 68 0 67 80 -3 80 -4 0 58 c0 33
5 77 11 99 13 47 63 97 110 112 45 15 170 16 223 2z m618 -283 c65 -31 131
-97 161 -164 19 -40 22 -65 22 -167 0 -141 -14 -183 -90 -264 -62 -66 -126
-93 -236 -99 -214 -11 -353 108 -375 320 -19 194 83 355 253 398 21 5 76 8
123 6 67 -3 97 -9 142 -30z m1325 19 c61 -18 144 -89 174 -147 23 -46 49 -155
49 -210 l0 -38 -260 0 c-201 0 -260 -3 -260 -12 0 -32 23 -90 47 -118 37 -44
76 -61 144 -61 74 -1 138 33 163 85 l16 35 63 -21 c34 -11 66 -24 71 -29 5 -5
-1 -24 -16 -46 -68 -101 -144 -145 -269 -151 -235 -12 -372 123 -371 366 1
221 129 361 333 362 36 0 88 -7 116 -15z m-531 -1 l21 -5 -20 -72 c-10 -40
-20 -73 -22 -75 -1 -1 -25 3 -54 9 -76 16 -140 -2 -185 -51 -52 -58 -58 -90
-54 -308 l3 -192 -82 0 -83 0 0 345 0 345 80 0 80 0 0 -50 0 -49 44 44 c25 24
59 48 78 54 37 10 161 14 194 5z"/>
<path d="M1455 1646 c-23 -14 -51 -43 -65 -68 -22 -38 -25 -55 -25 -143 0 -90
3 -104 27 -145 35 -60 88 -90 161 -90 92 0 139 28 180 105 29 54 31 202 3 255
-43 82 -89 110 -178 110 -49 0 -72 -6 -103 -24z"/>
<path d="M2881 1670 c-41 -10 -95 -62 -116 -112 l-15 -38 180 0 c117 0 180 4
180 10 0 24 -29 77 -56 102 -27 25 -91 49 -124 47 -8 -1 -30 -5 -49 -9z"/>
</g>
</svg>
